<svg  fill="##0e0e37"
 xmlns="http://www.w3.org/2000/svg"
 xmlns:xlink="http://www.w3.org/1999/xlink"
 width="200px" height="60px">
<defs>
<linearGradient id="PSgrad_0" x1="0%" x2="35.837%" y1="93.358%" y2="0%">
  <stop offset="0%" stop-color="rgb(2,146,204)" stop-opacity="1" />
  <stop offset="100%" stop-color="rgb(34,176,230)" stop-opacity="1" />
</linearGradient>

</defs>
<path fill-rule="evenodd"  fill="rgb(11, 12, 64)"
 d="M-0.000,30.998 C16.000,30.998 28.431,-0.001 56.000,-0.001 C82.068,-0.001 94.000,30.998 112.000,30.998 "/>
<path fill-rule="evenodd"  fill="rgb(255, 255, 255)"
 d="M65.805,30.814 L56.461,21.203 C56.327,21.065 56.174,20.996 56.000,20.996 C55.826,20.996 55.672,21.065 55.539,21.203 L46.195,30.814 C46.061,30.952 45.995,31.111 45.995,31.289 C45.995,31.467 46.062,31.625 46.195,31.763 L47.198,32.795 C47.331,32.932 47.485,33.001 47.659,33.001 C47.833,33.001 47.986,32.932 48.120,32.795 L56.000,24.688 L63.880,32.795 C64.014,32.932 64.168,33.001 64.341,33.001 C64.515,33.001 64.669,32.932 64.803,32.795 L65.805,31.763 C65.939,31.625 66.005,31.467 66.005,31.289 C66.005,31.111 65.939,30.951 65.805,30.814 Z"/>
<path fill="url(#PSgrad_0)"
 d="M65.805,30.814 L56.461,21.203 C56.327,21.065 56.174,20.996 56.000,20.996 C55.826,20.996 55.672,21.065 55.539,21.203 L46.195,30.814 C46.061,30.952 45.995,31.111 45.995,31.289 C45.995,31.467 46.062,31.625 46.195,31.763 L47.198,32.795 C47.331,32.932 47.485,33.001 47.659,33.001 C47.833,33.001 47.986,32.932 48.120,32.795 L56.000,24.688 L63.880,32.795 C64.014,32.932 64.168,33.001 64.341,33.001 C64.515,33.001 64.669,32.932 64.803,32.795 L65.805,31.763 C65.939,31.625 66.005,31.467 66.005,31.289 C66.005,31.111 65.939,30.951 65.805,30.814 Z"/>
</svg>

