<?xml version="1.0" encoding="utf-8"?>
<!-- Generator: Adobe Illustrator 16.0.0, SVG Export Plug-In . SVG Version: 6.00 Build 0)  -->
<!DOCTYPE svg PUBLIC "-//W3C//DTD SVG 1.1//EN" "http://www.w3.org/Graphics/SVG/1.1/DTD/svg11.dtd">
<svg version="1.1" id="Layer_1" xmlns="http://www.w3.org/2000/svg" xmlns:xlink="http://www.w3.org/1999/xlink" x="0px" y="0px"
	 width="175px" height="198px" viewBox="0 0 175 198" enable-background="new 0 0 175 198" xml:space="preserve">
<g>
	<path fill="#9AB973" d="M3.613,49.817C1.542,52.97,1.809,59.826,1.809,59.826l0.048,38.52l0.015,38.521
		c0,0-0.256,6.854,1.823,10.005l-0.012,0.036c1.695,3.371,7.767,6.568,7.767,6.568l33.383,19.22l33.366,19.243
		c0,0,5.809,3.649,9.576,3.427l0.027,0.029c3.768,0.216,9.57-3.443,9.57-3.443l33.335-19.303l33.35-19.271
		c0,0,6.065-3.207,7.756-6.581l0.036-0.009c2.072-3.155,1.805-10.01,1.805-10.01l-0.046-38.52l-0.016-38.521
		c0,0,0.255-6.856-1.823-10.006l0.009-0.038c-1.695-3.371-7.766-6.566-7.766-6.566l-33.382-19.219L97.266,4.662
		c0,0-5.81-3.649-9.577-3.426L87.662,1.21c-3.768-0.218-9.569,3.44-9.569,3.44L44.757,23.953L11.406,43.226
		c0,0-6.065,3.206-7.755,6.58L3.613,49.817z"/>
	<g>
		<path fill="#2D2D2D" d="M8.115,52.413c-1.962,2.984-1.708,9.474-1.708,9.474l0.045,36.458l0.015,36.458
			c0,0-0.243,6.488,1.725,9.469l-0.01,0.036c1.604,3.19,7.35,6.214,7.35,6.214l31.598,18.194l31.581,18.211
			c0,0,5.498,3.456,9.063,3.244l0.026,0.026c3.566,0.205,9.06-3.258,9.06-3.258l31.551-18.27l31.567-18.24
			c0,0,5.738-3.035,7.336-6.229l0.038-0.01c1.961-2.986,1.71-9.473,1.71-9.473l-0.046-36.458l-0.017-36.458
			c0,0,0.24-6.49-1.726-9.47l0.011-0.036c-1.606-3.19-7.35-6.214-7.35-6.214l-31.597-18.191L96.754,9.675
			c0,0-5.499-3.455-9.064-3.242l-0.025-0.026c-3.565-0.206-9.056,3.257-9.056,3.257l-31.553,18.27L15.49,46.175
			c0,0-5.741,3.035-7.341,6.229L8.115,52.413z"/>
		<g>
			<path fill="#9AB973" d="M115.656,73.34c-3.53-10.217-16.533-3.714-16.719-3.53c0.535-11.933-8.013-10.972-10.055-10.89
				c-29.188,4.458-45.627,39.983-49.947,50.46c-12.956,38.64,17.137,34.458,17.207,34.458c16.509-2.37,31.068-17.31,37.652-24.66
				c6.582-7.351,10.379-12.993,14.454-19.713c5.363-8.848,6.793-14.733,7.069-15.71C116.988,77.45,115.656,73.34,115.656,73.34z
				 M100.193,98.903c-2.046,3.507-12.448,15.304-18.856,20.785c0,0-19.04,18.764-30.93,6.689c-0.093-0.188-8.358-9.012,3.807-31.211
				c0.093-0.184,11.146-24.241,33.902-31.579c0,0,11.238-3.622,8.732,7.246c-0.373,0.186-13.469,9.846-18.058,21.747
				c-0.824,1.74-3.158,10.902,5.006,8.171c4.661-1.555,6.371-4.341,12.401-10.135c-7.245,6.547-16.655,10.306-14.118,2.229
				c0-0.093,3.436-9.939,13.558-16.999c-0.092-0.091,6.874-4.828,11.707-1.392C107.249,74.547,115.33,78.397,100.193,98.903z"/>
			<path fill="#9AB973" d="M115.839,49.517c-5.081-0.419-6.752,1.184-6.752,1.184c-3.413,2.021-6.758,12.678-6.758,12.678
				c21.498,7.41,39.773-17.489,39.633-17.489C135.138,50.213,116.398,49.585,115.839,49.517z M102.397,63.378
				c0,0,12.679-7.94,29.815-11.354C130.193,52.791,104,62.891,102.397,63.378z"/>
			<path fill="#9AB973" d="M33.502,143c0,0,3.482,0.698,1.254-6.686c0,0,7.479,13.971,29.117,7.654
				c7.529-2.195,19.32-7.514,36.333-29.72c3.437-4.485,16.26-22.314,20.567-24.808c3.983-2.308,9.464-2.539,12.275,4.24
				c3.225,7.787,0.147,15.351-4.785,16.975c-2.964,0.977-9.293-0.521-7.545-5.41c1.394-3.901,7.384-2.719,8.73,1.131
				c2.764-4.958,1.021-13.951-3.622-13.532c-9.769,0.88-25.451,44.583-60.373,56.287C64.641,149.405,42.696,155.124,33.502,143z"/>
		</g>
	</g>
</g>
</svg>
