<svg width="24" height="24" viewBox="0 0 24 24" fill="none" xmlns="http://www.w3.org/2000/svg">
<line x1="4.85714" y1="9.5" x2="19.1429" y2="9.5" stroke="black"/>
<path d="M9.56934 18.4909C9.36568 18.4841 9.17554 18.4736 9.0019 18.4601C9.13722 18.3253 9.24789 18.1669 9.33706 17.9969C9.53403 17.6213 9.64317 17.1609 9.70059 16.6777C9.81568 15.7092 9.73752 14.5119 9.59232 13.3713C9.44614 12.223 9.22747 11.099 9.0461 10.2645C8.98226 9.97072 8.92287 9.71208 8.87266 9.5H14.5593C14.5616 9.50672 14.5639 9.51353 14.5663 9.52044C14.6431 9.74449 14.7499 10.0668 14.8686 10.4572C15.1066 11.2397 15.3903 12.2879 15.5787 13.3633C15.7685 14.4473 15.8541 15.519 15.722 16.3644C15.5891 17.2142 15.2645 17.7012 14.7499 17.8782C13.2876 18.3811 11.1126 18.5424 9.56934 18.4909Z" stroke="black"/>
<path fill-rule="evenodd" clip-rule="evenodd" d="M5.5 7H18.5C19.8807 7 21 8.11929 21 9.5C21 10.8807 19.8807 12 18.5 12H14.9601C15.0198 12.3233 15.0766 12.659 15.1271 13H18.5C20.433 13 22 11.433 22 9.5C22 7.567 20.433 6 18.5 6H5.5C3.567 6 2 7.567 2 9.5C2 11.433 3.567 13 5.5 13H9.69581C9.65783 12.6592 9.61566 12.3234 9.57168 12H5.5C4.11929 12 3 10.8807 3 9.5C3 8.11929 4.11929 7 5.5 7Z" fill="black"/>
<mask id="mask0_1_24" style="mask-type:alpha" maskUnits="userSpaceOnUse" x="9" y="10" width="6" height="8">
<rect width="4.9863" height="6.50743" transform="matrix(0.989323 -0.145742 0.13559 0.990765 9.14286 10.7267)" fill="#D9D9D9"/>
</mask>
<g mask="url(#mask0_1_24)">
<path d="M12.5884 16.9425L12.4996 16.2941C12.1687 16.2813 11.8743 16.2067 11.6165 16.0703C11.3587 15.9339 11.1536 15.718 11.0014 15.4225L11.6463 15.0967C11.7706 15.3246 11.9312 15.4881 12.128 15.5873C12.3249 15.6865 12.5694 15.7146 12.8617 15.6715C13.1113 15.6347 13.3165 15.5571 13.4773 15.4385C13.6382 15.3199 13.7051 15.1626 13.6783 14.9666C13.6542 14.7907 13.5682 14.6611 13.4201 14.5777C13.2721 14.4944 12.9455 14.4233 12.4405 14.3644C11.8983 14.3058 11.5169 14.1966 11.2963 14.0368C11.0756 13.877 10.9467 13.6614 10.9096 13.3899C10.8649 13.0632 10.958 12.7905 11.1889 12.5719C11.4199 12.3533 11.6676 12.2116 11.9321 12.147L11.8454 11.5137L12.5761 11.406L12.6628 12.0394C12.9727 12.0348 13.2364 12.0895 13.4539 12.2036C13.6714 12.3177 13.8399 12.4711 13.9595 12.6637L13.3166 13.0046C13.2215 12.8545 13.1015 12.7491 12.9566 12.6884C12.8116 12.6277 12.6234 12.6144 12.3921 12.6485C12.1241 12.688 11.9269 12.767 11.8003 12.8857C11.6736 13.0043 11.6203 13.1365 11.6402 13.2823C11.6629 13.4482 11.7722 13.5654 11.9679 13.634C12.1636 13.7026 12.494 13.7565 12.959 13.7957C13.3929 13.8343 13.7329 13.9471 13.979 14.1339C14.2251 14.3207 14.3677 14.5574 14.4069 14.8439C14.4558 15.2008 14.365 15.4911 14.1348 15.7147C13.9045 15.9384 13.6037 16.1006 13.2324 16.2015L13.319 16.8349L12.5884 16.9425Z" fill="black"/>
</g>
</svg>
